HIERARCHY
ROOT Hips
{
	OFFSET 0.000000 88.474243 0.000000
	CHANNELS 6 Xposition Yposition Zposition Zrotation Yrotation Xrotation 
	JOINT Hips_Spine
	{
		OFFSET 0.000000 0.000000 0.000000
		CHANNELS 3 Zrotation Yrotation Xrotation
		JOINT Spine
		{
			OFFSET 0.005100 8.711998 -0.691000
			CHANNELS 3 Zrotation Yrotation Xrotation
			JOINT Spine1
			{
				OFFSET -0.009200 8.660301 -1.275000
				CHANNELS 3 Zrotation Yrotation Xrotation
				JOINT Spine2
				{
					OFFSET 0.006300 9.852501 -1.857000
					CHANNELS 3 Zrotation Yrotation Xrotation
					JOINT Spine2_Neck
					{
						OFFSET 0.000000 0.000000 0.000000
						CHANNELS 3 Zrotation Yrotation Xrotation
						JOINT Neck
						{
							OFFSET 0.016300 11.420799 -0.263300
							CHANNELS 3 Zrotation Yrotation Xrotation
							End Site #name: Head
							{
								OFFSET -0.019200 9.262405 2.362500
							}
						}
					}
					JOINT Spine2_LeftShoulder
					{
						OFFSET 0.000000 0.000000 0.000000
						CHANNELS 3 Zrotation Yrotation Xrotation
						JOINT LeftShoulder
						{
							OFFSET 5.616900 6.732201 -0.345700
							CHANNELS 3 Zrotation Yrotation Xrotation
							JOINT LeftArm
							{
								OFFSET 10.664888 -0.183372 -2.440700
								CHANNELS 3 Zrotation Yrotation Xrotation
								JOINT LeftForeArm
								{
									OFFSET 27.459126 0.000000 0.000000
									CHANNELS 3 Zrotation Yrotation Xrotation
									End Site #name: LeftHand
									{
										OFFSET 21.306858 0.000000 0.000000
									}
								}
							}
						}
					}
					JOINT Spine2_RightShoulder
					{
						OFFSET 0.000000 0.000000 0.000000
						CHANNELS 3 Zrotation Yrotation Xrotation
						JOINT RightShoulder
						{
							OFFSET -5.580300 6.737503 -0.344400
							CHANNELS 3 Zrotation Yrotation Xrotation
							JOINT RightArm
							{
								OFFSET -10.679335 -0.188484 -2.383900
								CHANNELS 3 Zrotation Yrotation Xrotation
								JOINT RightForeArm
								{
									OFFSET -27.503529 0.000000 0.000000
									CHANNELS 3 Zrotation Yrotation Xrotation
									End Site #name: RightHand
									{
										OFFSET -21.306808 0.000000 0.000000
									}
								}
							}
						}
					}
				}
			}
		}
	}
	JOINT Hips_LeftUpLeg
	{
		OFFSET 0.000000 0.000000 0.000000
		CHANNELS 3 Zrotation Yrotation Xrotation
		JOINT LeftUpLeg
		{
			OFFSET 6.857700 -6.739601 0.312100
			CHANNELS 3 Zrotation Yrotation Xrotation
			JOINT LeftLeg
			{
				OFFSET -0.367590 -34.731552 -4.572400
				CHANNELS 3 Zrotation Yrotation Xrotation
				End Site #name: LeftFoot
				{
					OFFSET 0.367590 -34.656704 -6.067400
				}
			}
		}
	}
	JOINT Hips_RightUpLeg
	{
		OFFSET 0.000000 0.000000 0.000000
		CHANNELS 3 Zrotation Yrotation Xrotation
		JOINT RightUpLeg
		{
			OFFSET -6.876100 -6.733299 0.301000
			CHANNELS 3 Zrotation Yrotation Xrotation
			JOINT RightLeg
			{
				OFFSET 0.347353 -34.795158 -4.515900
				CHANNELS 3 Zrotation Yrotation Xrotation
				End Site #name: RightFoot
				{
					OFFSET -0.347353 -34.589367 -6.070300
				}
			}
		}
	}
}
MOTION
Frames: 6
Frame Time: 0.041667
-0.099001 0.069205 -1.262426 -5.927942 1.187387 -5.661014 0.000000 0.000000 0.000000 4.182386 0.949097 19.815277 0.833021 0.227612 4.237020 0.000000 0.000000 0.000000 1.088399 0.341080 3.545900 1.095492 -0.468800 10.062461 0.981292 0.316714 3.845078 -6.316189 1.103516 -0.798167 -62.292299 -9.321176 15.030036 -0.728010 -62.727930 1.845398 0.762003 0.375574 4.462222 6.517681 -2.345757 0.670836 71.413579 18.586699 11.118867 0.618597 72.580230 0.748101 -0.000000 0.000000 0.000000 8.200058 8.057893 -69.999646 4.053808 -4.423268 68.636201 0.000000 0.000000 0.000000 -2.805457 -7.756084 -60.440348 1.118704 -0.301919 70.178614 
-0.102886 0.071508 -1.297164 -5.916907 1.185885 -5.658241 0.000000 -0.000000 0.000000 4.181909 0.944685 19.822561 0.833110 0.226544 4.242889 0.000000 0.000000 0.000000 1.087576 0.339391 3.550259 1.098038 -0.473948 10.076530 0.981093 0.315104 3.845990 -6.304904 1.106404 -0.801496 -62.289418 -9.326789 15.031922 -0.732039 -62.834564 1.848232 0.761098 0.374238 4.465233 6.518069 -2.354070 0.669055 71.414009 18.586406 11.096560 0.612906 72.568816 0.742155 -0.000000 0.000000 0.000000 8.202173 8.058318 -69.993188 4.061929 -4.420880 68.627391 0.000000 0.000000 0.000000 -2.805524 -7.758284 -60.431675 1.116777 -0.303996 70.174183 
-0.105701 0.073498 -1.331633 -5.908550 1.182530 -5.656485 0.000000 -0.000000 0.000000 4.181429 0.944691 19.826584 0.832534 0.225588 4.246952 0.000000 0.000000 0.000000 1.086917 0.337866 3.552788 1.101528 -0.479281 10.082618 0.981520 0.314394 3.848577 -6.296976 1.108263 -0.804436 -62.284557 -9.338476 15.015177 -0.731133 -62.848696 1.847011 0.761062 0.373706 4.469159 6.518473 -2.359426 0.668051 71.421109 18.603140 11.113627 0.603058 72.448379 0.731293 -0.000000 -0.000000 0.000000 8.205299 8.058371 -69.982041 4.071380 -4.417985 68.613678 0.000000 0.000000 0.000000 -2.804945 -7.761412 -60.418199 1.116078 -0.305019 70.165454 
-0.107442 0.075291 -1.365905 -5.901035 1.179411 -5.652996 0.000000 -0.000000 0.000000 4.180569 0.945122 19.828853 0.831670 0.225419 4.249411 0.000000 0.000000 0.000000 1.086374 0.336887 3.554465 1.103310 -0.481443 10.082592 0.981587 0.313498 3.849211 -6.292198 1.101850 -0.805561 -62.278737 -9.364923 14.971595 -0.729322 -62.801503 1.844569 0.760889 0.373236 4.471329 6.522993 -2.363221 0.667107 71.425140 18.632364 11.152133 0.590885 72.221476 0.717218 -0.000000 -0.000000 0.000000 8.207065 8.063359 -69.976568 4.082184 -4.413181 68.607444 0.000000 0.000000 0.000000 -2.803051 -7.760182 -60.400301 1.113418 -0.307543 70.152604 
-0.108098 0.076923 -1.399991 -5.894744 1.178537 -5.650176 0.000000 -0.000000 0.000000 4.180548 0.948029 19.830669 0.831008 0.225760 4.250622 0.000000 0.000000 0.000000 1.085188 0.336427 3.555204 1.105209 -0.482970 10.078428 0.981559 0.313589 3.850489 -6.285692 1.080358 -0.802820 -62.281226 -9.381675 14.933048 -0.723744 -62.692955 1.838408 0.760572 0.373555 4.473779 6.530263 -2.367980 0.666353 71.429996 18.671361 11.220723 0.576393 71.880265 0.700780 -0.000000 -0.000000 0.000000 8.207526 8.064873 -69.972086 4.092498 -4.410256 68.602447 0.000000 0.000000 0.000000 -2.801062 -7.760784 -60.388131 1.112657 -0.309558 70.138449 
-0.107749 0.078441 -1.433913 -5.889178 1.176654 -5.645211 0.000000 -0.000000 0.000000 4.180546 0.953007 19.829103 0.829789 0.226167 4.249859 0.000000 0.000000 0.000000 1.084227 0.336102 3.554537 1.105993 -0.483670 10.067909 0.981017 0.314218 3.850043 -6.282350 1.061068 -0.801502 -62.272782 -9.407703 14.853408 -0.715948 -62.535785 1.829573 0.760486 0.373903 4.474594 6.543879 -2.372837 0.665568 71.433008 18.728898 11.325384 0.559520 71.417686 0.682420 -0.000000 -0.000000 0.000000 8.207689 8.066268 -69.976182 4.101940 -4.406186 68.607158 0.000000 0.000000 0.000000 -2.800233 -7.761148 -60.378819 1.111254 -0.310653 70.133073 
